<svg xmlns="http://www.w3.org/2000/svg" viewBox="0 0 48 60" x="0px" y="0px"><path d="M17.61,13.57c-2.08,2.08,1.88,7.12,3.67,9.19.56.66,1.19,1.33,1.91,2s1.39,1.35,2,1.9C26.89,28.15,30.46,31,32.88,31a2.1,2.1,0,0,0,1.54-.59c.78-.77.79-2,0-3.72a1,1,0,0,0-1.83.81A3.42,3.42,0,0,1,33,29c-.41.16-2.65-.43-6.49-3.76-.62-.53-1.25-1.12-1.94-1.8s-1.27-1.32-1.8-1.95C19.44,17.59,18.88,15.34,19,15c0,0,.38-.15,1.52.36a1,1,0,0,0,1.32-.51,1,1,0,0,0-.51-1.32C19.64,12.79,18.38,12.8,17.61,13.57Z"/><path d="M22.28,19.5l.06.14a.67.67,0,0,0,.06.12,26.06,26.06,0,0,0,5.86,5.85.67.67,0,0,0,.12.06l.1,0a1,1,0,0,0,.34.06h0a1,1,0,0,0,.38-.07.87.87,0,0,0,.32-.22A4.95,4.95,0,0,0,31,21.83h0A4.92,4.92,0,0,0,26.17,17a5,5,0,0,0-3.66,1.47,1,1,0,0,0-.21.31l0,.12a.93.93,0,0,0,0,.23.32.32,0,0,0,0,.14A.78.78,0,0,0,22.28,19.5Z"/><path d="M38.65,29.31a1,1,0,0,0-.43.62c-.29-.63-.62-1.28-1-2a1,1,0,0,0-1.73,1c2.1,3.57,2,5.17,1.64,5.52-1,1-7-1.33-14.62-9s-9.92-13.66-9-14.62c.35-.35,2-.46,5.52,1.64a1,1,0,0,0,1-1.73c-.7-.41-1.35-.74-2-1a1,1,0,0,0,.62-.43A1,1,0,0,0,18.39,8c-5.79-3.73-10-4.71-12-2.77C4.7,6.88,5.21,10.28,7.85,15a68.39,68.39,0,0,0,11.1,14,68.39,68.39,0,0,0,14,11.1c2.9,1.62,5.3,2.43,7.11,2.43a3.65,3.65,0,0,0,2.71-1c1.94-1.94,1-6.2-2.77-12A1,1,0,0,0,38.65,29.31ZM41.4,40.19c-.74.73-3.07.65-7.43-1.79A66.37,66.37,0,0,1,20.36,27.64,66.37,66.37,0,0,1,9.6,14C7.16,9.67,7.08,7.34,7.81,6.6c.88-.88,3.89-.4,8.68,2.53-2-.65-3.48-.55-4.39.35-2.78,2.79,2.4,10.89,9,17.45,5.32,5.32,11.65,9.74,15.34,9.74a2.9,2.9,0,0,0,2.11-.77c.9-.91,1-2.4.35-4.39C41.8,36.3,42.28,39.31,41.4,40.19Z"/><path d="M44.25,7A1,1,0,0,0,43,7.75,6.47,6.47,0,0,1,37.8,12a14.56,14.56,0,0,0-3.65,1.23c.24-.56.5-1.18.78-1.88a13.1,13.1,0,0,1,5.52-6.48,1,1,0,1,0-.9-1.78,14.91,14.91,0,0,0-6.48,7.52A30.87,30.87,0,0,1,30.48,16a5,5,0,0,0-.31.41,1,1,0,0,0,.2,1.32A.94.94,0,0,0,31,18a1,1,0,0,0,.71-.29,3.69,3.69,0,0,0,.35-.45A10.75,10.75,0,0,1,38.2,14,8.42,8.42,0,0,0,45,8.24,1,1,0,0,0,44.25,7Z"/><path d="M16.09,30.5a3,3,0,0,0-.36.44A10.68,10.68,0,0,1,9.6,34.23,8.43,8.43,0,0,0,2.82,40a1,1,0,0,0,1.94.5A6.46,6.46,0,0,1,10,36.19,15.21,15.21,0,0,0,13.65,35c-.24.55-.51,1.18-.79,1.88C11,41.4,8.51,43.12,8.46,43.16A1,1,0,0,0,9,45a1,1,0,0,0,.54-.16c.13-.08,3.09-2,5.18-7.26a30,30,0,0,1,2.6-5.42,2.36,2.36,0,0,0,.3-.4,1,1,0,0,0-1.53-1.26Z"/><text x="0" y="63" fill="#000000" font-size="5px" font-weight="bold" font-family="'Helvetica Neue', Helvetica, Arial-Unicode, Arial, Sans-serif">Created by Hai Studio</text><text x="0" y="68" fill="#000000" font-size="5px" font-weight="bold" font-family="'Helvetica Neue', Helvetica, Arial-Unicode, Arial, Sans-serif">from the Noun Project</text></svg>